<svg xmlns="http://www.w3.org/2000/svg" viewBox="0 0 100 100" fill="white">
  <!-- Bracket superior izquierdo -->
  <rect x="4" y="4" width="22" height="7"/>
  <rect x="4" y="4" width="7" height="28"/>

  <!-- Bracket superior derecho -->
  <rect x="74" y="4" width="22" height="7"/>
  <rect x="89" y="4" width="7" height="28"/>

  <!-- Bracket inferior izquierdo -->
  <rect x="4" y="89" width="22" height="7"/>
  <rect x="4" y="68" width="7" height="28"/>

  <!-- Bracket inferior derecho -->
  <rect x="74" y="89" width="22" height="7"/>
  <rect x="89" y="68" width="7" height="28"/>

  <!-- Letra B con huecos -->
  <path fill-rule="evenodd" d="
    M 18 12
    L 18 55
    L 50 55
    C 63 55, 72 48, 72 38
    C 72 31, 67 26, 58 24
    C 65 22, 70 17, 70 10
    C 70 12, 63 12, 50 12
    L 18 12 Z

    M 30 20
    L 46 20
    C 54 20, 58 22, 58 26
    C 58 30, 54 32, 46 32
    L 30 32
    Z

    M 30 40
    L 48 40
    C 57 40, 62 43, 62 47
    C 62 51, 57 54, 48 54
    L 30 54
    Z
  "/>

  <!-- Letra S pequeña -->
  <path d="
    M 55 83
    C 46 83, 40 79, 40 73
    L 47 73
    C 47 76, 50 78, 55 78
    C 60 78, 64 76, 64 73
    C 64 70, 60 68, 53 67
    C 45 65, 38 62, 38 56
    C 38 50, 46 46, 55 46
    C 64 46, 72 50, 72 56
    L 65 56
    C 65 53, 61 51, 55 51
    C 49 51, 45 53, 45 56
    C 45 59, 49 61, 56 62
    C 64 64, 71 67, 71 73
    C 71 79, 63 83, 55 83
    Z
  "/>
</svg>
